<mxfile host="app.diagrams.net" modified="2020-11-10T16:25:28.344Z" agent="5.0 (Macintosh; Intel Mac OS X 10_15_7) AppleWebKit/537.36 (KHTML, like Gecko) Chrome/86.0.4240.80 Safari/537.36" etag="Wkj90h2zXhSUEUw-VC3H" version="13.9.2" type="github">
  <diagram id="juzcoO5aMXoIAjG5bAuT" name="Page-1">
    <mxGraphModel dx="909" dy="665" grid="1" gridSize="10" guides="1" tooltips="1" connect="1" arrows="1" fold="1" page="1" pageScale="1" pageWidth="850" pageHeight="1100" math="0" shadow="0">
      <root>
        <mxCell id="0" />
        <mxCell id="1" parent="0" />
        <mxCell id="K4UiaTiZzuQG-6o3cde9-1" value="SubnetEntity" style="swimlane;fontStyle=0;childLayout=stackLayout;horizontal=1;startSize=26;fillColor=none;horizontalStack=0;resizeParent=1;resizeParentMax=0;resizeLast=0;collapsible=1;marginBottom=0;" vertex="1" parent="1">
          <mxGeometry x="290" y="120" width="220" height="628" as="geometry">
            <mxRectangle x="260" y="120" width="80" height="26" as="alternateBounds" />
          </mxGeometry>
        </mxCell>
        <mxCell id="K4UiaTiZzuQG-6o3cde9-2" value="+ cidr: String" style="text;strokeColor=none;fillColor=none;align=left;verticalAlign=top;spacingLeft=4;spacingRight=4;overflow=hidden;rotatable=0;points=[[0,0.5],[1,0.5]];portConstraint=eastwest;" vertex="1" parent="K4UiaTiZzuQG-6o3cde9-1">
          <mxGeometry y="26" width="220" height="26" as="geometry" />
        </mxCell>
        <mxCell id="K4UiaTiZzuQG-6o3cde9-3" value="+ routes: List&lt;RouteEntity&gt;" style="text;strokeColor=none;fillColor=none;align=left;verticalAlign=top;spacingLeft=4;spacingRight=4;overflow=hidden;rotatable=0;points=[[0,0.5],[1,0.5]];portConstraint=eastwest;" vertex="1" parent="K4UiaTiZzuQG-6o3cde9-1">
          <mxGeometry y="52" width="220" height="26" as="geometry" />
        </mxCell>
        <mxCell id="K4UiaTiZzuQG-6o3cde9-4" value="+ router: Router&#xa;" style="text;strokeColor=none;fillColor=none;align=left;verticalAlign=top;spacingLeft=4;spacingRight=4;overflow=hidden;rotatable=0;points=[[0,0.5],[1,0.5]];portConstraint=eastwest;" vertex="1" parent="K4UiaTiZzuQG-6o3cde9-1">
          <mxGeometry y="78" width="220" height="22" as="geometry" />
        </mxCell>
        <mxCell id="K4UiaTiZzuQG-6o3cde9-5" value="+ admin_state_up: boolean&#xa;" style="text;strokeColor=none;fillColor=none;align=left;verticalAlign=top;spacingLeft=4;spacingRight=4;overflow=hidden;rotatable=0;points=[[0,0.5],[1,0.5]];portConstraint=eastwest;" vertex="1" parent="K4UiaTiZzuQG-6o3cde9-1">
          <mxGeometry y="100" width="220" height="22" as="geometry" />
        </mxCell>
        <mxCell id="K4UiaTiZzuQG-6o3cde9-6" value="+ dns_domain: String&#xa;" style="text;strokeColor=none;fillColor=none;align=left;verticalAlign=top;spacingLeft=4;spacingRight=4;overflow=hidden;rotatable=0;points=[[0,0.5],[1,0.5]];portConstraint=eastwest;" vertex="1" parent="K4UiaTiZzuQG-6o3cde9-1">
          <mxGeometry y="122" width="220" height="22" as="geometry" />
        </mxCell>
        <mxCell id="K4UiaTiZzuQG-6o3cde9-7" value="+ mtu: Integer&#xa;" style="text;strokeColor=none;fillColor=none;align=left;verticalAlign=top;spacingLeft=4;spacingRight=4;overflow=hidden;rotatable=0;points=[[0,0.5],[1,0.5]];portConstraint=eastwest;" vertex="1" parent="K4UiaTiZzuQG-6o3cde9-1">
          <mxGeometry y="144" width="220" height="22" as="geometry" />
        </mxCell>
        <mxCell id="K4UiaTiZzuQG-6o3cde9-8" value="+ port_security_enabled: boolean&#xa;" style="text;strokeColor=none;fillColor=none;align=left;verticalAlign=top;spacingLeft=4;spacingRight=4;overflow=hidden;rotatable=0;points=[[0,0.5],[1,0.5]];portConstraint=eastwest;" vertex="1" parent="K4UiaTiZzuQG-6o3cde9-1">
          <mxGeometry y="166" width="220" height="22" as="geometry" />
        </mxCell>
        <mxCell id="K4UiaTiZzuQG-6o3cde9-9" value="+ provider:network_type: String&#xa;" style="text;strokeColor=none;fillColor=none;align=left;verticalAlign=top;spacingLeft=4;spacingRight=4;overflow=hidden;rotatable=0;points=[[0,0.5],[1,0.5]];portConstraint=eastwest;" vertex="1" parent="K4UiaTiZzuQG-6o3cde9-1">
          <mxGeometry y="188" width="220" height="22" as="geometry" />
        </mxCell>
        <mxCell id="K4UiaTiZzuQG-6o3cde9-10" value="+ provider:physical_network: String&#xa;" style="text;strokeColor=none;fillColor=none;align=left;verticalAlign=top;spacingLeft=4;spacingRight=4;overflow=hidden;rotatable=0;points=[[0,0.5],[1,0.5]];portConstraint=eastwest;" vertex="1" parent="K4UiaTiZzuQG-6o3cde9-1">
          <mxGeometry y="210" width="220" height="22" as="geometry" />
        </mxCell>
        <mxCell id="K4UiaTiZzuQG-6o3cde9-11" value="+ provider:segmentation_id: Integer&#xa;" style="text;strokeColor=none;fillColor=none;align=left;verticalAlign=top;spacingLeft=4;spacingRight=4;overflow=hidden;rotatable=0;points=[[0,0.5],[1,0.5]];portConstraint=eastwest;" vertex="1" parent="K4UiaTiZzuQG-6o3cde9-1">
          <mxGeometry y="232" width="220" height="22" as="geometry" />
        </mxCell>
        <mxCell id="K4UiaTiZzuQG-6o3cde9-12" value="+ router:external: boolean" style="text;strokeColor=none;fillColor=none;align=left;verticalAlign=top;spacingLeft=4;spacingRight=4;overflow=hidden;rotatable=0;points=[[0,0.5],[1,0.5]];portConstraint=eastwest;" vertex="1" parent="K4UiaTiZzuQG-6o3cde9-1">
          <mxGeometry y="254" width="220" height="22" as="geometry" />
        </mxCell>
        <mxCell id="K4UiaTiZzuQG-6o3cde9-13" value="+ segments: List&lt;SegmentInfoInVpc&gt;&#xa;" style="text;strokeColor=none;fillColor=none;align=left;verticalAlign=top;spacingLeft=4;spacingRight=4;overflow=hidden;rotatable=0;points=[[0,0.5],[1,0.5]];portConstraint=eastwest;" vertex="1" parent="K4UiaTiZzuQG-6o3cde9-1">
          <mxGeometry y="276" width="220" height="22" as="geometry" />
        </mxCell>
        <mxCell id="K4UiaTiZzuQG-6o3cde9-14" value="+ shared: boolean&#xa;" style="text;strokeColor=none;fillColor=none;align=left;verticalAlign=top;spacingLeft=4;spacingRight=4;overflow=hidden;rotatable=0;points=[[0,0.5],[1,0.5]];portConstraint=eastwest;" vertex="1" parent="K4UiaTiZzuQG-6o3cde9-1">
          <mxGeometry y="298" width="220" height="22" as="geometry" />
        </mxCell>
        <mxCell id="K4UiaTiZzuQG-6o3cde9-15" value="+ vlan_transparent: boolean&#xa;" style="text;strokeColor=none;fillColor=none;align=left;verticalAlign=top;spacingLeft=4;spacingRight=4;overflow=hidden;rotatable=0;points=[[0,0.5],[1,0.5]];portConstraint=eastwest;" vertex="1" parent="K4UiaTiZzuQG-6o3cde9-1">
          <mxGeometry y="320" width="220" height="22" as="geometry" />
        </mxCell>
        <mxCell id="K4UiaTiZzuQG-6o3cde9-16" value="+ is_default: boolean&#xa;" style="text;strokeColor=none;fillColor=none;align=left;verticalAlign=top;spacingLeft=4;spacingRight=4;overflow=hidden;rotatable=0;points=[[0,0.5],[1,0.5]];portConstraint=eastwest;" vertex="1" parent="K4UiaTiZzuQG-6o3cde9-1">
          <mxGeometry y="342" width="220" height="22" as="geometry" />
        </mxCell>
        <mxCell id="K4UiaTiZzuQG-6o3cde9-17" value="+ availability_zone_hints: List&lt;String&gt;&#xa;" style="text;strokeColor=none;fillColor=none;align=left;verticalAlign=top;spacingLeft=4;spacingRight=4;overflow=hidden;rotatable=0;points=[[0,0.5],[1,0.5]];portConstraint=eastwest;" vertex="1" parent="K4UiaTiZzuQG-6o3cde9-1">
          <mxGeometry y="364" width="220" height="22" as="geometry" />
        </mxCell>
        <mxCell id="K4UiaTiZzuQG-6o3cde9-18" value="+ availability_zones: List&lt;String&gt;&#xa;" style="text;strokeColor=none;fillColor=none;align=left;verticalAlign=top;spacingLeft=4;spacingRight=4;overflow=hidden;rotatable=0;points=[[0,0.5],[1,0.5]];portConstraint=eastwest;" vertex="1" parent="K4UiaTiZzuQG-6o3cde9-1">
          <mxGeometry y="386" width="220" height="22" as="geometry" />
        </mxCell>
        <mxCell id="K4UiaTiZzuQG-6o3cde9-19" value="+ qos_policy_id: String&#xa;" style="text;strokeColor=none;fillColor=none;align=left;verticalAlign=top;spacingLeft=4;spacingRight=4;overflow=hidden;rotatable=0;points=[[0,0.5],[1,0.5]];portConstraint=eastwest;" vertex="1" parent="K4UiaTiZzuQG-6o3cde9-1">
          <mxGeometry y="408" width="220" height="22" as="geometry" />
        </mxCell>
        <mxCell id="K4UiaTiZzuQG-6o3cde9-20" value="+ revision_number: Integer&#xa;" style="text;strokeColor=none;fillColor=none;align=left;verticalAlign=top;spacingLeft=4;spacingRight=4;overflow=hidden;rotatable=0;points=[[0,0.5],[1,0.5]];portConstraint=eastwest;" vertex="1" parent="K4UiaTiZzuQG-6o3cde9-1">
          <mxGeometry y="430" width="220" height="22" as="geometry" />
        </mxCell>
        <mxCell id="K4UiaTiZzuQG-6o3cde9-21" value="+ status: String&#xa;" style="text;strokeColor=none;fillColor=none;align=left;verticalAlign=top;spacingLeft=4;spacingRight=4;overflow=hidden;rotatable=0;points=[[0,0.5],[1,0.5]];portConstraint=eastwest;" vertex="1" parent="K4UiaTiZzuQG-6o3cde9-1">
          <mxGeometry y="452" width="220" height="22" as="geometry" />
        </mxCell>
        <mxCell id="K4UiaTiZzuQG-6o3cde9-22" value="+ tags: List&lt;String&gt;&#xa;" style="text;strokeColor=none;fillColor=none;align=left;verticalAlign=top;spacingLeft=4;spacingRight=4;overflow=hidden;rotatable=0;points=[[0,0.5],[1,0.5]];portConstraint=eastwest;" vertex="1" parent="K4UiaTiZzuQG-6o3cde9-1">
          <mxGeometry y="474" width="220" height="22" as="geometry" />
        </mxCell>
        <mxCell id="K4UiaTiZzuQG-6o3cde9-23" value="+ create_at: String&#xa;" style="text;strokeColor=none;fillColor=none;align=left;verticalAlign=top;spacingLeft=4;spacingRight=4;overflow=hidden;rotatable=0;points=[[0,0.5],[1,0.5]];portConstraint=eastwest;" vertex="1" parent="K4UiaTiZzuQG-6o3cde9-1">
          <mxGeometry y="496" width="220" height="22" as="geometry" />
        </mxCell>
        <mxCell id="K4UiaTiZzuQG-6o3cde9-24" value="+ update_at: String&#xa;" style="text;strokeColor=none;fillColor=none;align=left;verticalAlign=top;spacingLeft=4;spacingRight=4;overflow=hidden;rotatable=0;points=[[0,0.5],[1,0.5]];portConstraint=eastwest;" vertex="1" parent="K4UiaTiZzuQG-6o3cde9-1">
          <mxGeometry y="518" width="220" height="22" as="geometry" />
        </mxCell>
        <mxCell id="K4UiaTiZzuQG-6o3cde9-25" value="+ ipv4_address_scope: String&#xa;" style="text;strokeColor=none;fillColor=none;align=left;verticalAlign=top;spacingLeft=4;spacingRight=4;overflow=hidden;rotatable=0;points=[[0,0.5],[1,0.5]];portConstraint=eastwest;" vertex="1" parent="K4UiaTiZzuQG-6o3cde9-1">
          <mxGeometry y="540" width="220" height="22" as="geometry" />
        </mxCell>
        <mxCell id="K4UiaTiZzuQG-6o3cde9-26" value="+ ipv6_address_scope: String&#xa;" style="text;strokeColor=none;fillColor=none;align=left;verticalAlign=top;spacingLeft=4;spacingRight=4;overflow=hidden;rotatable=0;points=[[0,0.5],[1,0.5]];portConstraint=eastwest;" vertex="1" parent="K4UiaTiZzuQG-6o3cde9-1">
          <mxGeometry y="562" width="220" height="22" as="geometry" />
        </mxCell>
        <mxCell id="K4UiaTiZzuQG-6o3cde9-27" value="+ l2_adjacency: String" style="text;strokeColor=none;fillColor=none;align=left;verticalAlign=top;spacingLeft=4;spacingRight=4;overflow=hidden;rotatable=0;points=[[0,0.5],[1,0.5]];portConstraint=eastwest;" vertex="1" parent="K4UiaTiZzuQG-6o3cde9-1">
          <mxGeometry y="584" width="220" height="22" as="geometry" />
        </mxCell>
        <mxCell id="K4UiaTiZzuQG-6o3cde9-28" value="+ subnets: List&lt;String&gt;" style="text;strokeColor=none;fillColor=none;align=left;verticalAlign=top;spacingLeft=4;spacingRight=4;overflow=hidden;rotatable=0;points=[[0,0.5],[1,0.5]];portConstraint=eastwest;" vertex="1" parent="K4UiaTiZzuQG-6o3cde9-1">
          <mxGeometry y="606" width="220" height="22" as="geometry" />
        </mxCell>
        <mxCell id="K4UiaTiZzuQG-6o3cde9-29" value="SegmentInfoInVpc" style="swimlane;fontStyle=0;childLayout=stackLayout;horizontal=1;startSize=26;fillColor=none;horizontalStack=0;resizeParent=1;resizeParentMax=0;resizeLast=0;collapsible=1;marginBottom=0;" vertex="1" parent="1">
          <mxGeometry x="560" y="300" width="200" height="104" as="geometry">
            <mxRectangle x="530" y="300" width="130" height="26" as="alternateBounds" />
          </mxGeometry>
        </mxCell>
        <mxCell id="K4UiaTiZzuQG-6o3cde9-30" value="+ provider:network_type: String" style="text;strokeColor=none;fillColor=none;align=left;verticalAlign=top;spacingLeft=4;spacingRight=4;overflow=hidden;rotatable=0;points=[[0,0.5],[1,0.5]];portConstraint=eastwest;" vertex="1" parent="K4UiaTiZzuQG-6o3cde9-29">
          <mxGeometry y="26" width="200" height="26" as="geometry" />
        </mxCell>
        <mxCell id="K4UiaTiZzuQG-6o3cde9-31" value="+ provider:physical_network: String" style="text;strokeColor=none;fillColor=none;align=left;verticalAlign=top;spacingLeft=4;spacingRight=4;overflow=hidden;rotatable=0;points=[[0,0.5],[1,0.5]];portConstraint=eastwest;" vertex="1" parent="K4UiaTiZzuQG-6o3cde9-29">
          <mxGeometry y="52" width="200" height="26" as="geometry" />
        </mxCell>
        <mxCell id="K4UiaTiZzuQG-6o3cde9-32" value="+ provider:segmentation_id: Integer" style="text;strokeColor=none;fillColor=none;align=left;verticalAlign=top;spacingLeft=4;spacingRight=4;overflow=hidden;rotatable=0;points=[[0,0.5],[1,0.5]];portConstraint=eastwest;" vertex="1" parent="K4UiaTiZzuQG-6o3cde9-29">
          <mxGeometry y="78" width="200" height="26" as="geometry" />
        </mxCell>
        <mxCell id="K4UiaTiZzuQG-6o3cde9-33" value="Extends" style="endArrow=block;endSize=16;endFill=0;html=1;exitX=0.5;exitY=0;exitDx=0;exitDy=0;" edge="1" parent="1" source="K4UiaTiZzuQG-6o3cde9-1">
          <mxGeometry width="160" relative="1" as="geometry">
            <mxPoint x="300" y="30" as="sourcePoint" />
            <mxPoint x="400" y="50" as="targetPoint" />
          </mxGeometry>
        </mxCell>
        <mxCell id="K4UiaTiZzuQG-6o3cde9-34" value="" style="endArrow=open;shadow=0;strokeWidth=1;rounded=0;endFill=1;edgeStyle=elbowEdgeStyle;elbow=vertical;" edge="1" parent="1" source="K4UiaTiZzuQG-6o3cde9-11" target="K4UiaTiZzuQG-6o3cde9-31">
          <mxGeometry x="0.5" y="41" relative="1" as="geometry">
            <mxPoint x="510" y="365" as="sourcePoint" />
            <mxPoint x="630" y="339" as="targetPoint" />
            <mxPoint x="-40" y="32" as="offset" />
            <Array as="points">
              <mxPoint x="560" y="365" />
              <mxPoint x="600" y="250" />
            </Array>
          </mxGeometry>
        </mxCell>
        <mxCell id="K4UiaTiZzuQG-6o3cde9-35" value="1" style="resizable=0;align=left;verticalAlign=bottom;labelBackgroundColor=none;fontSize=12;" connectable="0" vertex="1" parent="K4UiaTiZzuQG-6o3cde9-34">
          <mxGeometry x="-1" relative="1" as="geometry">
            <mxPoint y="1" as="offset" />
          </mxGeometry>
        </mxCell>
        <mxCell id="K4UiaTiZzuQG-6o3cde9-36" value="*" style="resizable=0;align=right;verticalAlign=bottom;labelBackgroundColor=none;fontSize=12;" connectable="0" vertex="1" parent="K4UiaTiZzuQG-6o3cde9-34">
          <mxGeometry x="1" relative="1" as="geometry">
            <mxPoint x="-7" y="4" as="offset" />
          </mxGeometry>
        </mxCell>
        <mxCell id="K4UiaTiZzuQG-6o3cde9-37" value="VpcsWebJson" style="swimlane;fontStyle=0;childLayout=stackLayout;horizontal=1;startSize=26;fillColor=none;horizontalStack=0;resizeParent=1;resizeParentMax=0;resizeLast=0;collapsible=1;marginBottom=0;" vertex="1" parent="1">
          <mxGeometry x="80" y="120" width="170" height="52" as="geometry" />
        </mxCell>
        <mxCell id="K4UiaTiZzuQG-6o3cde9-38" value="+ vpcs: ArrayList&lt;VpcEntity&gt;" style="text;strokeColor=none;fillColor=none;align=left;verticalAlign=top;spacingLeft=4;spacingRight=4;overflow=hidden;rotatable=0;points=[[0,0.5],[1,0.5]];portConstraint=eastwest;" vertex="1" parent="K4UiaTiZzuQG-6o3cde9-37">
          <mxGeometry y="26" width="170" height="26" as="geometry" />
        </mxCell>
        <mxCell id="K4UiaTiZzuQG-6o3cde9-39" value="" style="endArrow=open;shadow=0;strokeWidth=1;rounded=0;endFill=1;edgeStyle=elbowEdgeStyle;elbow=vertical;" edge="1" parent="1" source="K4UiaTiZzuQG-6o3cde9-38" target="K4UiaTiZzuQG-6o3cde9-1">
          <mxGeometry x="0.5" y="41" relative="1" as="geometry">
            <mxPoint x="160" y="200" as="sourcePoint" />
            <mxPoint x="260" y="200" as="targetPoint" />
            <mxPoint x="-40" y="32" as="offset" />
            <Array as="points">
              <mxPoint x="260" y="159" />
              <mxPoint x="250" y="180" />
              <mxPoint x="270" y="159" />
              <mxPoint x="260" y="139" />
              <mxPoint x="280" y="85" />
            </Array>
          </mxGeometry>
        </mxCell>
        <mxCell id="K4UiaTiZzuQG-6o3cde9-40" value="1" style="resizable=0;align=left;verticalAlign=bottom;labelBackgroundColor=none;fontSize=12;" connectable="0" vertex="1" parent="K4UiaTiZzuQG-6o3cde9-39">
          <mxGeometry x="-1" relative="1" as="geometry">
            <mxPoint y="4" as="offset" />
          </mxGeometry>
        </mxCell>
        <mxCell id="K4UiaTiZzuQG-6o3cde9-41" value="*" style="resizable=0;align=right;verticalAlign=bottom;labelBackgroundColor=none;fontSize=12;" connectable="0" vertex="1" parent="K4UiaTiZzuQG-6o3cde9-39">
          <mxGeometry x="1" relative="1" as="geometry">
            <mxPoint x="-7" y="4" as="offset" />
          </mxGeometry>
        </mxCell>
        <mxCell id="K4UiaTiZzuQG-6o3cde9-42" value="VpcWebJson" style="swimlane;fontStyle=0;childLayout=stackLayout;horizontal=1;startSize=26;fillColor=none;horizontalStack=0;resizeParent=1;resizeParentMax=0;resizeLast=0;collapsible=1;marginBottom=0;" vertex="1" parent="1">
          <mxGeometry x="80" y="214" width="170" height="52" as="geometry" />
        </mxCell>
        <mxCell id="K4UiaTiZzuQG-6o3cde9-43" value="+ network: VpcEntity" style="text;strokeColor=none;fillColor=none;align=left;verticalAlign=top;spacingLeft=4;spacingRight=4;overflow=hidden;rotatable=0;points=[[0,0.5],[1,0.5]];portConstraint=eastwest;" vertex="1" parent="K4UiaTiZzuQG-6o3cde9-42">
          <mxGeometry y="26" width="170" height="26" as="geometry" />
        </mxCell>
        <mxCell id="K4UiaTiZzuQG-6o3cde9-44" value="" style="endArrow=open;shadow=0;strokeWidth=1;rounded=0;endFill=1;elbow=vertical;edgeStyle=orthogonalEdgeStyle;" edge="1" parent="1" source="K4UiaTiZzuQG-6o3cde9-43" target="K4UiaTiZzuQG-6o3cde9-6">
          <mxGeometry x="0.5" y="41" relative="1" as="geometry">
            <mxPoint x="230" y="250" as="sourcePoint" />
            <mxPoint x="160" y="350" as="targetPoint" />
            <mxPoint x="-40" y="32" as="offset" />
          </mxGeometry>
        </mxCell>
        <mxCell id="K4UiaTiZzuQG-6o3cde9-45" value="1" style="resizable=0;align=left;verticalAlign=bottom;labelBackgroundColor=none;fontSize=12;" connectable="0" vertex="1" parent="K4UiaTiZzuQG-6o3cde9-44">
          <mxGeometry x="-1" relative="1" as="geometry">
            <mxPoint y="4" as="offset" />
          </mxGeometry>
        </mxCell>
        <mxCell id="K4UiaTiZzuQG-6o3cde9-46" value="1" style="resizable=0;align=right;verticalAlign=bottom;labelBackgroundColor=none;fontSize=12;" connectable="0" vertex="1" parent="K4UiaTiZzuQG-6o3cde9-44">
          <mxGeometry x="1" relative="1" as="geometry">
            <mxPoint x="-7" y="4" as="offset" />
          </mxGeometry>
        </mxCell>
        <mxCell id="K4UiaTiZzuQG-6o3cde9-47" value="&lt;p style=&quot;margin: 0px ; margin-top: 4px ; text-align: center&quot;&gt;&lt;b&gt;CustomerResource&lt;/b&gt;&lt;/p&gt;&lt;hr size=&quot;1&quot;&gt;&lt;div style=&quot;height: 2px&quot;&gt;&lt;/div&gt;" style="verticalAlign=top;align=left;overflow=fill;fontSize=12;fontFamily=Helvetica;html=1;" vertex="1" parent="1">
          <mxGeometry x="330" y="20" width="140" height="30" as="geometry" />
        </mxCell>
        <mxCell id="K4UiaTiZzuQG-6o3cde9-48" value="NetworksWebJson" style="swimlane;fontStyle=0;childLayout=stackLayout;horizontal=1;startSize=26;fillColor=none;horizontalStack=0;resizeParent=1;resizeParentMax=0;resizeLast=0;collapsible=1;marginBottom=0;" vertex="1" parent="1">
          <mxGeometry x="80" y="300" width="170" height="52" as="geometry" />
        </mxCell>
        <mxCell id="K4UiaTiZzuQG-6o3cde9-49" value="+ networks: List&lt;VpcEntity&gt;" style="text;strokeColor=none;fillColor=none;align=left;verticalAlign=top;spacingLeft=4;spacingRight=4;overflow=hidden;rotatable=0;points=[[0,0.5],[1,0.5]];portConstraint=eastwest;" vertex="1" parent="K4UiaTiZzuQG-6o3cde9-48">
          <mxGeometry y="26" width="170" height="26" as="geometry" />
        </mxCell>
        <mxCell id="K4UiaTiZzuQG-6o3cde9-50" value="" style="endArrow=open;shadow=0;strokeWidth=1;rounded=0;endFill=1;edgeStyle=elbowEdgeStyle;elbow=vertical;" edge="1" parent="1" source="K4UiaTiZzuQG-6o3cde9-49" target="K4UiaTiZzuQG-6o3cde9-10">
          <mxGeometry x="0.5" y="41" relative="1" as="geometry">
            <mxPoint x="160" y="380" as="sourcePoint" />
            <mxPoint x="290" y="339" as="targetPoint" />
            <mxPoint x="-40" y="32" as="offset" />
            <Array as="points">
              <mxPoint x="260" y="339" />
              <mxPoint x="250" y="360" />
              <mxPoint x="270" y="339" />
              <mxPoint x="260" y="319" />
              <mxPoint x="280" y="265" />
            </Array>
          </mxGeometry>
        </mxCell>
        <mxCell id="K4UiaTiZzuQG-6o3cde9-51" value="1" style="resizable=0;align=left;verticalAlign=bottom;labelBackgroundColor=none;fontSize=12;" connectable="0" vertex="1" parent="K4UiaTiZzuQG-6o3cde9-50">
          <mxGeometry x="-1" relative="1" as="geometry">
            <mxPoint y="4" as="offset" />
          </mxGeometry>
        </mxCell>
        <mxCell id="K4UiaTiZzuQG-6o3cde9-52" value="*" style="resizable=0;align=right;verticalAlign=bottom;labelBackgroundColor=none;fontSize=12;" connectable="0" vertex="1" parent="K4UiaTiZzuQG-6o3cde9-50">
          <mxGeometry x="1" relative="1" as="geometry">
            <mxPoint x="-7" y="4" as="offset" />
          </mxGeometry>
        </mxCell>
      </root>
    </mxGraphModel>
  </diagram>
</mxfile>
